<?xml version="1.0" standalone="no"?>
<!DOCTYPE svg PUBLIC "-//W3C//DTD SVG 1.1//EN" "http://www.w3.org/Graphics/SVG/1.1/DTD/svg11.dtd" >
<!--
2013-9-30: Created.
-->
<svg>
<metadata>
Created by iconfont
</metadata>
<defs>

<font id="iconfont" horiz-adv-x="1024" >
  <font-face
    font-family="iconfont"
    font-weight="500"
    font-stretch="normal"
    units-per-em="1024"
    ascent="896"
    descent="-128"
  />
    <missing-glyph />
    
    <glyph glyph-name="x" unicode="x" horiz-adv-x="1001"
d="M281 543q-27 -1 -53 -1h-83q-18 0 -36.5 -6t-32.5 -18.5t-23 -32t-9 -45.5v-76h912v41q0 16 -0.5 30t-0.5 18q0 13 -5 29t-17 29.5t-31.5 22.5t-49.5 9h-133v-97h-438v97zM955 310v-52q0 -23 0.5 -52t0.5 -58t-10.5 -47.5t-26 -30t-33 -16t-31.5 -4.5q-14 -1 -29.5 -0.5
t-29.5 0.5h-32l-45 128h-439l-44 -128h-29h-34q-20 0 -45 1q-25 0 -41 9.5t-25.5 23t-13.5 29.5t-4 30v167h911zM163 247q-12 0 -21 -8.5t-9 -21.5t9 -21.5t21 -8.5q13 0 22 8.5t9 21.5t-9 21.5t-22 8.5zM316 123q-8 -26 -14 -48q-5 -19 -10.5 -37t-7.5 -25t-3 -15t1 -14.5
t9.5 -10.5t21.5 -4h37h67h81h80h64h36q23 0 34 12t2 38q-5 13 -9.5 30.5t-9.5 34.5q-5 19 -11 39h-368zM336 498v228q0 11 2.5 23t10 21.5t20.5 15.5t34 6h188q31 0 51.5 -14.5t20.5 -52.5v-227h-327z" />
    

    
    <glyph glyph-name="youjiantou" unicode="&#58880;" d="M606.6875-56.6875l312.5 312.5c24.4063 24.4063 24.4063 63.9688 0 88.375l-312.5 312.5c-24.4063 24.4063-63.9688 24.4063-88.375 0-24.4063-24.4063-24.4063-63.9688 0-88.375l205.8125-205.8125h-599.125c-34.5313 0-62.5-27.9688-62.5-62.5s27.9688-62.5 62.5-62.5h599.125l-205.8125-205.8125c-12.1875-12.1875-18.3125-28.1875-18.3125-44.1875s6.0938-32 18.3125-44.1875c24.4063-24.4063 63.9688-24.4063 88.375 0z"  horiz-adv-x="1000" />

    
    <glyph glyph-name="pinglun" unicode="&#58965;" d="M511.999488-35.882863c-28.734592 0-56.729303 2.604314-83.969807 7.099698L231.232673-148.185602 231.232673 50.59265C128.618486 122.644663 62.772174 233.110567 62.772174 357.174164c0 217.07906 201.129864 393.058051 449.228338 393.058051 248.084146 0 449.228338-175.980014 449.228338-393.058051C961.227826 140.082824 760.083635-35.882863 511.999488-35.882863zM511.999488 694.08238c-217.086932 0-393.074156-150.851707-393.074156-336.907193 0-114.166179 66.421434-214.898395 167.761552-275.820929l-1.768346-130.234133 132.171551 79.455633c30.4487-6.497994 62.117231-10.308787 94.910422-10.308787 217.101258 0 393.073132 150.825101 393.073132 336.907193C905.073644 543.230674 729.10177 694.08238 511.999488 694.08238zM736.614169 301.023306c-31.011542 0-56.154182 25.128307-56.154182 56.150858 0 31.010271 25.14264 56.151881 56.154182 56.151881s56.154182-25.14161 56.154182-56.151881C792.768351 326.151613 767.624687 301.023306 736.614169 301.023306zM511.999488 301.023306c-31.010518 0-56.153158 25.128307-56.153158 56.150858 0 31.010271 25.14264 56.151881 56.153158 56.151881 31.011542 0 56.154182-25.14161 56.154182-56.151881C568.15367 326.151613 543.01103 301.023306 511.999488 301.023306zM287.385831 301.023306c-31.010518 0-56.153158 25.128307-56.153158 56.150858 0 31.010271 25.14264 56.151881 56.153158 56.151881s56.153158-25.14161 56.153158-56.151881C343.53899 326.151613 318.39635 301.023306 287.385831 301.023306z"  horiz-adv-x="1024" />

    
    <glyph glyph-name="zhengfangxing" unicode="&#58882;" d="M384.427486 428.084167l255.82655 0 0-254.472715-255.82655 0 0 254.472715Z"  horiz-adv-x="1024" />

    
    <glyph glyph-name="iconfonticon" unicode="&#58908;" d="M951.878 470.314c-23.862 57.616-59.174 110.459-103.27 154.557-44.099 44.098-96.943 79.41-154.558 103.272-57.615 23.867-119.956 36.266-182.313 36.266-62.364 0-124.702-12.398-182.317-36.266-57.616-23.862-110.459-59.174-154.558-103.271-44.097-44.098-79.41-96.942-103.27-154.557-23.868-57.616-36.266-119.954-36.266-182.318 0-62.356 12.398-124.696 36.266-182.312 23.861-57.616 59.174-110.458 103.27-154.556 44.098-44.098 96.942-79.41 154.558-103.272 57.616-23.866 119.953-36.264 182.317-36.264 62.357 0 124.697 12.398 182.312 36.264 57.616 23.862 110.459 59.175 154.558 103.272 44.097 44.098 79.408 96.941 103.27 154.556 23.867 57.616 36.264 119.956 36.264 182.312 0.001 62.364-12.397 124.703-36.263 182.318zM779.714 94.458c0-39.469-34.971-74.438-74.438-74.438h-387.083c-39.468 0-74.438 34.97-74.438 74.438v357.306c0 39.47 34.972 74.438 74.438 74.438h74.438v14.889c0 9.873 5.017 14.889 14.889 14.889s14.889-5.017 14.889-14.889v-14.889h178.651v14.889c0 9.873 5.020 14.889 14.889 14.889 9.873 0 14.889-5.017 14.889-14.889v-14.889h74.439c39.469 0 74.438-34.971 74.438-74.438v-357.306zM273.531 94.458c0-19.727 24.934-44.661 44.662-44.661h387.084c19.741 0 44.662 24.934 44.662 44.661v282.867h-476.408v-282.867zM421.887 256.067l73.692-73.679 126.311 126.304c14.575 14.607 35.194-6.906 21.049-21.049l-126.305-126.31c-16.693-16.701-26.057-16.047-42.106 0l-73.692 73.699c-14.293 14.274 7.189 34.912 21.051 21.035zM705.277 496.431h-74.439v-29.777c0-9.873-5.017-14.89-14.889-14.89-9.868 0-14.889 7.997-14.889 17.866v26.801h-178.65v-26.801c0-9.869-5.017-17.866-14.889-17.866s-14.889 5.017-14.889 14.89v29.777h-74.438c-19.728 0-44.662-24.925-44.662-44.667v-44.661h476.407v44.661c0.001 19.743-24.919 44.667-44.66 44.667z"  horiz-adv-x="1024" />

    
    <glyph glyph-name="wode" unicode="&#58900;" d="M775.931646 505.917724c0 144.803967-118.779244 262.148535-265.348414 262.148535S245.233795 650.721691 245.233795 505.917724c0-83.61128 39.743166-157.902286 101.408621-205.89637-110.578468-55.700603-188.43672-166.601412-197.048865-295.498084l39.680744 0c9.307993 120.69385 87.62571 227.54339 196.922998 270.046413 34.736129-16.503882 83.263355-30.818913 124.385938-30.818913 41.10928 0 79.895655 9.518794 114.629737 25.997094l27.216875 15.783475 22.070668 14.490016C736.190527 348.015438 775.931646 422.306444 775.931646 505.917724L775.931646 505.917724zM510.583233 286.45129c-122.695436 0-222.138286 98.275257-222.138286 219.478713 0 121.178897 99.44285 219.449038 222.138286 219.449038 122.683157 0 222.138286-98.269118 222.138286-219.449038C732.721519 384.726547 638.198725 286.45129 510.583233 286.45129L510.583233 286.45129zM735.07103 261.521504l-0.199545-0.274246c-4.324492 4.125971-10.115382 6.710842-16.57756 6.710842-13.359262 0-24.145933-5.069459-24.145933-18.392906 0-9.245572 5.331425-16.950044 12.887518-21.026896l-0.149403-0.224104c72.550363-51.846832 109.149932-130.387629 116.371404-223.790926l48.304146 0C864.637967 108.291634 812.7676 200.676741 735.07103 261.521504L735.07103 261.521504zM735.07103 261.521504"  horiz-adv-x="1024" />

    
    <glyph glyph-name="aixin" unicode="&#58903;" d="M960 512C960 646.4 857.6 768 710.4 768 563.2 768 512 614.4 512 614.4 512 614.4 460.8 768 313.6 768 166.4 768 64 665.6 64 512 64 204.8 512 0 512 0 512 0 960 204.8 960 512Z"  horiz-adv-x="1024" />

    
    <glyph glyph-name="mjiantou" unicode="&#58910;" d="M683.9808 384 267.6224 800.3328 303.8208 836.5568 720.4608 419.9168 756.3776 384 303.8208-68.5568 267.6224-32.3328Z"  horiz-adv-x="1024" />

    
    <glyph glyph-name="wodeguanzhu" unicode="&#58954;" d="M109.692878 9.066146M852.967024 9.066146M840.978732 149.528976c-19.780683 41.559415-48.152976 78.823024-84.217756 110.791805-52.84839 46.854244-118.084683 78.62322-189.115317 92.809366 74.826927 35.665171 126.476488 111.990634 126.476488 200.30439 0 122.48039-99.303024 221.783415-221.783415 221.783415s-221.783415-99.303024-221.783415-221.783415c0-90.611512 54.346927-168.535415 132.270829-203.001756-66.235317-15.285073-127.075902-46.055024-176.92722-90.211902-36.06478-31.96878-64.337171-69.23239-84.217756-110.791805-20.579902-43.257756-31.069659-89.112976-31.069659-136.466732l37.962927 0c0 82.519415 36.364488 160.343415 102.499902 218.986146 66.734829 59.142244 155.548098 91.810341 250.25561 91.810341 94.60761 0 183.52078-32.568195 250.25561-91.810341 66.035512-58.642732 102.499902-136.366829 102.499902-218.986146l37.962927 0C871.948488 60.416 861.558634 106.27122 840.978732 149.528976zM288.518244 553.534439c0 49.152 19.081366 95.306927 53.847415 129.973073 34.766049 34.766049 80.920976 53.847415 129.973073 53.847415 49.152 0 95.306927-19.081366 129.973073-53.847415 34.766049-34.766049 53.847415-80.920976 53.847415-129.973073 0-49.152-19.081366-95.306927-53.847415-129.973073-34.766049-34.766049-80.920976-53.847415-129.973073-53.847415-49.152 0-95.306927 19.081366-129.973073 53.847415C307.59961 458.227512 288.518244 504.382439 288.518244 553.534439zM986.636488 403.880585 867.752585 403.880585 867.752585 522.764488 829.789659 522.764488 829.789659 403.880585 710.905756 403.880585 710.905756 365.917659 829.789659 365.917659 829.789659 247.033756 867.752585 247.033756 867.752585 365.917659 986.636488 365.917659Z"  horiz-adv-x="1024" />

    
    <glyph glyph-name="sousuo" unicode="&#59103;" d="M511.705799 831.978894c-247.270686 0-447.724091-200.453405-447.724091-447.724091s200.453405-447.724091 447.724091-447.724091c247.27171 0 447.724091 200.453405 447.724091 447.724091S758.976486 831.978894 511.705799 831.978894zM773.616928 150.80182c-7.278777-7.804756-19.901259-7.856945-28.200272-0.121773L620.66949 266.990053c-1.469468 1.36816-2.697435 2.89084-3.691065 4.505617-38.963407-31.639604-88.633666-50.603515-142.734842-50.603515-125.138068 0-226.582505 101.44239-226.582505 226.580458 0 125.138068 101.444437 226.582505 226.579435 226.582505 125.138068 0 226.582505-101.444437 226.582505-226.582505 0-57.498552-21.418822-109.99109-56.71163-149.944034 1.01205-0.665149 1.986237-1.419326 2.905166-2.27788l124.750235-116.311029C780.062733 171.202453 780.891611 158.605553 773.616928 150.80182zM474.24256 636.918313c-104.629989 0-189.444677-84.818781-189.444677-189.444677 0-104.627942 84.815711-189.44263 189.444677-189.44263 104.623849 0 189.44263 84.814688 189.44263 189.44263C663.685189 552.099533 578.870502 636.918313 474.24256 636.918313z"  horiz-adv-x="1024" />

    
    <glyph glyph-name="xinxi" unicode="&#58971;" d="M829.478 95.929h-637.686c-7.817 0-14.814 4.811-17.56 12.13-2.746 7.32-0.401 15.557 5.487 20.698 36.722 32.065 64.805 102.341 69.602 171.075v104.207c0 88.836 21.452 158.124 64.281 205.946 44.799 50.022 111.295 75.384 197.899 75.384 86.601 0 153.231-25.363 198.033-75.383 42.831-47.823 64.553-117.113 64.553-205.947v-104.207c3.837-70.613 31.412-139.319 67.8-171.098 5.887-5.14 7.935-13.356 5.187-20.676-2.747-7.319-9.779-12.129-17.595-12.129zM233.038 132.383h555.423c-28.857 42.211-53.708 154.189-51.788 166.891v104.763c0 161.787-75.841 243.82-225.184 243.82-149.338 0-225.122-82.033-225.122-243.82 0 0-0.040-105.492-0.063-105.858-2.199-37.646-10.733-76.418-24.648-111.199-8.119-20.292-17.786-38.288-28.619-54.597zM520.736 10.174c-41.369 0-75.023 33.653-75.023 75.021 0 8.574 1.442 17.002 4.287 25.046 3.454 9.763 14.168 14.882 23.937 11.427 9.764-3.454 14.882-14.17 11.428-23.934-1.421-4.018-2.141-8.237-2.141-12.539 0-20.682 16.827-37.51 37.512-37.51 20.682 0 37.51 16.828 37.51 37.51 0 4.34-0.723 8.564-2.151 12.558-3.482 9.755 1.602 20.486 11.357 23.97 9.748 3.481 20.485-1.599 23.971-11.356 2.874-8.053 4.334-16.522 4.334-25.173-0.001-41.367-33.657-75.021-75.023-75.021zM549.598 655.625c-10.358 0-19.186 8.397-19.186 18.756v29.745c0 10.342-8.364 18.757-18.706 18.757-10.341 0-18.708-8.414-18.708-18.757v-29.745c0-10.358-8.828-18.756-19.188-18.756-10.358 0-19.186 8.397-19.186 18.756v29.745c0 31.026 26.058 56.267 57.082 56.267 31.027 0 57.081-25.241 57.081-56.267v-29.745c0-10.358-8.828-18.756-19.188-18.756z"  horiz-adv-x="1024" />

    
    <glyph glyph-name="other" unicode="&#58929;" d="M33.792 406.886c-0-0-0-0-0-0 0-51.832 42.018-93.85 93.85-93.85 51.832 0 93.85 42.018 93.85 93.85 0 0 0 0 0 0 0 0 0 0 0 0 0 51.832-42.018 93.85-93.85 93.85-51.832 0-93.85-42.018-93.85-93.85 0-0 0-0 0-0zM403.558 406.886c0-51.832 42.018-93.85 93.85-93.85s93.85 42.018 93.85 93.85c0 51.832-42.018 93.85-93.85 93.85-51.832 0-93.85-42.018-93.85-93.85zM773.325 406.886c0-51.832 42.018-93.85 93.85-93.85s93.85 42.018 93.85 93.85c0 51.832-42.018 93.85-93.85 93.85-51.832 0-93.85-42.018-93.85-93.85z"  horiz-adv-x="1024" />

    
    <glyph glyph-name="icon" unicode="&#58952;" d="M399.399 383.754l292.155 292.16c12.278 12.27 12.278 32.186 0 44.457-12.27 12.278-32.186 12.278-44.457 0l-314.387-314.389c-12.281-12.27-12.281-32.186 0-44.457l314.388-314.388c6.137-6.14 14.183-9.211 22.228-9.211s16.092 3.071 22.228 9.211c12.281 12.27 12.281 32.186 0 44.457l-292.157 292.161z"  horiz-adv-x="1024" />

    
    <glyph glyph-name="fenxiang" unicode="&#59283;" d="M807.051923 13.769864c0-33.584909-28.29237-61.826114-61.942771-61.826114l-621.456924-1.011027c-33.650401 0-60.926628 27.221991-60.926628 60.801784l1.014096 620.256586c0 33.586956 28.293393 61.824067 61.942771 61.824067l309.714877 0 0 61.822021L125.681444 755.637182c-67.297732 0-123.883495-68.64031-123.883495-135.803989l0-608.097662c0-67.162656 54.555523-121.610732 121.854279-121.610732l609.272417 0c67.297732 0 136.070049 56.476269 136.070049 123.645065L868.994694 168.322869l-61.942771 0L807.051923 13.769864zM1015.352039 556.797531 717.440999 871.161289c-11.812023 11.288091-30.963199 11.288091-42.775222 0-6.801916-6.501064-9.217942-15.266705-8.18645-23.736611l0-169.287591-0.001023 0c-513.281179-9.504468-447.882704-509.811148-447.882704-509.811148s253.205862 196.372459 447.883727 222.453465l0-168.400385c-1.031493-8.472975 1.384533-17.237593 8.18645-23.734564 0.075725-0.073678 0.179079-0.092098 0.258896-0.162706 5.428639-5.418406 12.972453-8.845459 21.412682-8.845459 9.292644 0 17.262152 4.328585 22.738887 10.735505l296.275797 312.64051c6.300496 6.024204 8.982582 14.011108 8.562003 21.892613C1024.334621 542.789493 1021.653559 550.776398 1015.352039 556.797531zM726.19743 293.899936 726.19743 419.518958c0 0-0.001023 0.002047-0.001023 0.004093L726.196407 448.249303c0 0-276.91382 28.54308-454.629361-172.111916 0.932232 108.003829 138.627291 338.239538 349.245196 344.526731 15.516392 0.464581 30.689976 1.925862 45.667086 0l59.71708 0 0 28.727275c0 0.002047 0.001023 0.004093 0.001023 0.00614L726.19743 775.907854 954.584024 534.900825 726.19743 293.899936z"  horiz-adv-x="1040" />

    
    <glyph glyph-name="heart" unicode="&#58927;" d="M1002.191 521.406c0 153.243-124.312 277.936-277.103 277.936-76.229 0-147.271-30.739-198.876-84.342-51.581 53.389-122.528 84.033-198.59 84.033-152.791 0-277.103-124.693-277.103-277.936 0-70.971 26.647-138.373 75.087-190.12 0.833-1.023 1.737-1.999 2.688-2.95l2.784-2.784 1.332-1.356 350.644-336.678c11.111-11.111 26.671-17.558 43.182-17.558 16.535 0 32.095 6.448 43.801 18.129 11.016 10.468 287.334 273.32 350.501 336.535 0.357 0.357 0.714 0.714 1.071 1.071l-0.476-0.428c0.809 0.785 1.594 1.594 2.379 2.427 50.748 52.199 78.68 121.029 78.68 194.022zM891.963 356.124c0 0 0 0 0 0-0.309-0.333-0.666-0.714-0.975-1.023-0.024-0.024-0.048-0.024-0.071-0.048-62.454-62.62-350.929-337.011-350.929-337.011-3.807-3.783-8.779-5.686-13.752-5.686-4.972 0-9.945 1.903-13.752 5.686l-349.978 336.036c-0.476 0.476-0.928 0.952-1.404 1.404l-2.784 2.784c0 0 0.071 0.024 0.095 0.024-40.422 42.278-65.332 99.593-65.332 162.784 0 129.903 105.017 235.23 234.54 235.23 83.723 0 157.145-44.015 198.638-110.204 41.469 66.355 115.010 110.513 198.828 110.513 129.523 0 234.516-105.326 234.516-235.23 0.024-64.404-25.814-122.766-67.64-165.258zM328.026 702.176c-101.686 0-184.434-82.986-184.434-184.981 0-11.777 9.541-21.341 21.294-21.341 11.753 0 21.294 9.564 21.294 21.341 0 78.465 63.619 142.275 141.847 142.275 11.753 0 21.294 9.564 21.294 21.341s-9.541 21.365-21.294 21.365z"  horiz-adv-x="1024" />

    
    <glyph glyph-name="xiangji" unicode="&#58966;" d="M928.99328-52.89984l-44.2368 0 0 0L132.71552-52.89984l0 0-44.2368 0C39.61344-52.89984 0-13.39392 0 35.33824L0 630.912c0 48.73728 39.61344 88.23296 88.47872 88.23296l44.2368 0 0 0 0 0 143.77472 0 55.296 88.23296c0 12.1856 32.02048 22.05696 44.24192 22.05696l265.42592 0c12.2112 0 44.24192-9.87136 44.24192-22.05696l55.296-88.23296 143.77472 0 44.2368 0c48.86528 0 88.4736-39.5008 88.4736-88.23296l0-595.57376C1017.472-13.39392 977.85856-52.89984 928.99328-52.89984L928.99328-52.89984zM508.72832 630.912c-158.80192 0-287.5392-128.384-287.5392-286.75584 0-158.37696 128.7424-286.76608 287.5392-286.76608 158.80704 0 287.54432 128.38912 287.54944 286.75072l0 0.03072C796.27264 502.53312 667.53536 630.912 508.72832 630.912L508.72832 630.912zM508.72832 145.62816c-109.93664 0-199.06048 88.87808-199.06048 198.51776 0 109.6448 89.12384 198.528 199.06048 198.528 109.952 0 199.08096-88.88832 199.08096-198.528C707.80928 234.51136 618.68032 145.62816 508.72832 145.62816L508.72832 145.62816z"  horiz-adv-x="1024" />

    
    <glyph glyph-name="pinglun1" unicode="&#58885;" d="M345.394495 460.639494c18.101263 0 34.225499-7.336082 46.218648-19.078521 11.966543-12.218276 19.302625-28.367071 19.302625-46.443775 0-18.101263-7.336082-34.225499-19.302625-45.967938-11.993149-11.742439-28.117384-19.553335-46.218648-19.553335-18.076704 0-34.476209 7.81192-46.193065 19.553335-11.992125 11.742439-19.078521 27.865651-19.078521 45.967938 0 18.076704 7.086395 34.225499 19.078521 46.443775C310.919309 453.303412 327.317791 460.639494 345.394495 460.639494L345.394495 460.639494zM511.163959 785.342738 511.163959 785.342738c122.505102 0 233.744625-43.038212 314.437435-112.716154C907.998009 601.947847 959.097828 503.902834 959.097828 395.118222c0-108.559485-51.099818-206.852138-133.496433-277.258675-80.693834-69.927629-192.183044-112.716154-314.437435-112.716154-37.155225 0-73.108065 4.155646-107.333564 11.491729-29.568433 6.109138-58.18519 14.648628-85.324294 26.38902l-107.834984-58.18519c-10.515494-5.380544-21.757536-8.061606-32.998555-7.336082l0 0c-11.242042 0.976234-22.007223 5.132904-31.797194 12.220323-9.28855 7.334036-16.124236 16.622586-20.029172 27.638477l0 0c-4.155646 10.515494-4.906753 22.007223-2.453888 33.725102l25.913183 113.717971c-25.412786 30.29498-46.443775 64.294328-60.638055 100.222609C72.04178 305.636235 62.753229 349.875808 62.753229 395.118222c0 108.785635 50.850132 206.829626 133.496433 277.508361C276.94452 742.304526 388.432707 785.342738 511.163959 785.342738L511.163959 785.342738zM781.111111 620.549507 781.111111 620.549507c-68.951395 58.911738-164.317393 95.840812-269.947152 95.840812-106.10662 0-201.471594-36.929074-270.39843-95.840812-66.998927-57.960063-109.060905-137.90279-109.060905-225.432309 0-36.20355 7.336082-71.403237 20.530592-103.928001 13.694907-33.725102 33.498952-64.795748 58.4359-91.934852 8.563026-8.061606 12.969383-20.279882 10.039657-32.998555L195.273429 54.266184l105.630782 57.234539c9.03784 4.631484 20.279882 5.608741 30.319539 0.976234 26.889417-12.467963 55.982012-22.50762 87.028099-28.865421 29.343305-6.361895 60.639079-9.541307 92.91211-9.541307 105.630782 0 200.995757 36.679387 269.947152 95.866395 67.474764 57.684794 108.784612 137.653103 108.784612 225.181599S848.585875 562.589444 781.111111 620.549507L781.111111 620.549507zM362.519524 412.217668 362.519524 412.217668c-4.406356 4.406356-10.515494 7.336082-17.125029 7.336082-6.584975 0-12.718673-2.929726-17.10047-7.336082-3.930519-3.90596-6.860245-10.264784-6.860245-17.10047 0-6.860245 2.929726-12.718673 6.860245-16.624632 4.381797-4.657067 10.515494-7.336082 17.10047-7.336082 6.609535 0 12.718673 2.679016 17.125029 7.336082 4.406356 3.90596 6.834662 9.764388 6.834662 16.624632C369.355209 401.952884 366.92588 408.312732 362.519524 412.217668L362.519524 412.217668zM511.163959 460.639494 511.163959 460.639494c18.101263 0 34.250058-7.336082 45.967938-19.078521 11.993149-12.218276 19.078521-28.367071 19.078521-46.443775 0-18.101263-7.084349-34.225499-19.078521-45.967938-11.716856-11.742439-27.865651-19.553335-45.967938-19.553335-18.327414 0-34.701336 7.81192-46.442752 19.553335-11.743462 11.742439-19.329231 27.865651-19.329231 45.967938 0 18.076704 7.585769 34.225499 19.329231 46.443775C476.462622 453.303412 492.836545 460.639494 511.163959 460.639494L511.163959 460.639494zM527.788591 412.217668 527.788591 412.217668c-4.381797 4.406356-10.264784 7.336082-16.624632 7.336082-6.834662 0-12.9438-2.929726-17.10047-7.336082-4.406356-3.90596-7.085372-10.264784-7.085372-17.10047 0-6.860245 2.679016-12.718673 7.085372-16.624632 4.155646-4.657067 10.264784-7.336082 17.10047-7.336082 6.358825 0 12.242835 2.679016 16.624632 7.336082 4.406356 3.90596 7.336082 9.764388 7.336082 16.624632C535.12365 401.952884 532.194948 408.312732 527.788591 412.217668L527.788591 412.217668zM676.456562 460.639494 676.456562 460.639494c18.102287 0 34.225499-7.336082 46.443775-19.078521 11.742439-12.218276 19.078521-28.367071 19.078521-46.443775 0-18.101263-7.336082-34.225499-19.078521-45.967938-12.218276-11.742439-28.340465-19.553335-46.443775-19.553335-18.101263 0-34.224476 7.81192-46.468334 19.553335-11.716856 11.742439-19.051915 27.865651-19.051915 45.967938 0 18.076704 7.335059 34.225499 19.051915 46.443775C642.232087 453.303412 658.355299 460.639494 676.456562 460.639494L676.456562 460.639494zM693.558056 412.217668 693.558056 412.217668c-4.38282 4.406356-10.264784 7.336082-17.101493 7.336082-6.860245 0-12.718673-2.929726-17.125029-7.336082-4.381797-3.90596-6.834662-10.264784-6.834662-17.10047 0-6.860245 2.452865-12.718673 6.834662-16.624632 4.406356-4.657067 10.264784-7.336082 17.125029-7.336082 6.835685 0 12.718673 2.679016 17.101493 7.336082 4.155646 3.90596 6.859221 9.764388 6.859221 16.624632C700.417277 401.952884 697.713702 408.312732 693.558056 412.217668L693.558056 412.217668z"  horiz-adv-x="1024" />

    
    <glyph glyph-name="yanjing" unicode="&#59661;" d="M511.999488 219.639628c-90.629113 0-164.361395 73.732282-164.361395 164.360372 0 90.629113 73.732282 164.361395 164.361395 164.361395 90.62809 0 164.360372-73.732282 164.360372-164.361395s-73.732282-164.360372-164.360372-164.360372z m0 267.323395c-56.774051 0-102.963023-46.188972-102.963023-102.963023 0-56.773028 46.188972-102.962 102.963023-102.962 56.773028 0 102.962 46.188972 102.962 102.962 0 56.774051-46.188972 102.963023-102.962 102.963023zM511.999488 76.988698c-0.224104 0-0.447185 0.002047-0.670265 0.007163-61.842487 1.350764-124.605949 17.72571-186.544627 48.668443-48.701189 24.329105-97.006358 57.68991-143.571906 99.154277-78.729086 70.100568-125.199467 138.881071-127.138632 141.774981a30.55797 30.55797 0 0 0-5.200442 17.384949 30.5549 30.5549 0 0 0 5.200442 17.427927c1.940189 2.89391 48.41057 71.674413 127.138632 141.776004 46.565549 41.464367 94.869694 74.824149 143.571906 99.153254 61.939701 30.942733 124.70214 47.316655 186.544627 48.66742 0.448208 0.010233 0.893346 0.010233 1.341554 0 61.84351-1.350764 124.605949-17.724687 186.54565-48.66742 48.702212-24.329105 97.006358-57.688887 143.571907-99.153254 78.728062-70.101591 125.198443-138.883117 127.137608-141.776004a30.691 30.691 0 0 0 5.199419-17.093306v-0.62524a30.699186 30.699186 0 0 0-5.199419-17.093307c-1.940189-2.89391-48.409546-71.674413-127.136585-141.776004-46.566572-41.464367-94.870718-74.824149-143.57293-99.154277-61.938678-30.94171-124.70214-47.316655-186.54565-48.668443-0.225127-0.005117-0.447185-0.007163-0.671289-0.007163zM117.277542 383.99386c17.954931-23.707958 54.937217-69.133543 105.875352-114.309442 65.787332-58.344826 169.262008-128.419811 288.846594-131.289162 196.931185 4.716418 351.377766 188.451046 394.721947 245.611907-17.948791 23.698748-54.933123 69.128427-105.876376 114.308419-65.787332 58.344826-169.260985 128.420835-288.846594 131.289162-196.930161-4.717442-351.375719-188.450023-394.720923-245.610884z"  horiz-adv-x="1024" />

    
    <glyph glyph-name="shezhi" unicode="&#59091;" d="M927.36 383.872h-106.24v0.128c0 73.664-27.008 140.544-70.144 193.728l77.376 77.312c5.558 5.749 8.983 13.59 8.983 22.231 0 17.673-14.327 32-32 32-8.641 0-16.482-3.425-22.24-8.991l-77.367-77.303c-48.738 39.872-110.83 65.101-178.692 68.215l16.964 108.105c0 17.673-14.327 32-32 32s-32-14.327-32-32v-109.376c-73.11-7.63-137.518-39.937-185.831-88.32l-75.289 98.688c-5.749 5.558-13.59 8.983-22.231 8.983-17.673 0-32-14.327-32-32 0-8.641 3.425-16.482 8.991-22.24l89.399-89.399c-37.551-50.213-60.151-113.509-60.225-182.079l0.001 0.319h-106.112c-17.673 0-32-14.327-32-32s14.327-32 32-32h112.96c10.304-48.768 33.024-92.352 63.296-129.6l-77.312-77.376c-5.558-5.749-8.983-13.59-8.983-22.231 0-17.673 14.327-32 32-32 8.641 0 16.482 3.425 22.24 8.991l77.303 77.239c48.762-39.837 110.863-65.042 178.727-68.154l-16.999-108.102c-0-0-0-0-0-0 0-17.673 14.327-32 32-32 17.673 0 32 14.327 32 32 0 0 0 0 0 0v109.376c63.050 6.469 119.355 31.155 164.694 68.637l52.394-79.005c5.749-5.558 13.59-8.983 22.231-8.983 17.673 0 32 14.327 32 32 0 8.641-3.425 16.482-8.991 22.24l-65.335 65.335c42.949 46.787 71.575 107.346 78.561 174.34l107.743-32.708c0.019-0 0.041-0 0.064-0 17.673 0 32 14.327 32 32 0 17.651-14.29 31.964-31.933 32zM512 138.752c-135.361 0.182-245.039 109.882-245.184 245.234 0.182 135.352 109.846 245.016 245.167 245.198 135.357-0.146 245.028-109.839 245.137-245.174-0.109-135.368-109.772-245.076-245.103-245.258zM512 514.112c-71.842-0.073-130.067-58.275-130.176-130.102-0-71.882 58.368-130.25 130.176-130.25 71.86 0.109 130.076 58.37 130.112 130.237-0.073 71.833-58.282 130.043-130.105 130.115zM512 317.76c-35.687 1.144-64.181 30.349-64.181 66.208 0 35.859 28.495 65.064 64.076 66.205 35.792-1.142 64.286-30.346 64.286-66.205 0-35.859-28.495-65.064-64.076-66.205z"  horiz-adv-x="1024" />

    
    <glyph glyph-name="qiandao" unicode="&#58886;" d="M862.564 720.11h-73.246c-19.383 0-35.124-15.734-35.124-35.192 0-19.433 15.741-35.178 35.124-35.178h73.246c14.58 0 25.063-19.333 25.063-33.939v-537.229c0-14.602-21.238-35.819-35.815-35.819H171.319c-14.613 0-35.815 21.217-35.815 35.819V615.801c0 14.605 21.203 35.819 35.815 35.819h71.63c19.376 0 32.706 13.864 32.706 33.297 0 19.458-13.33 38.329-32.706 38.329h-71.63c-53.3 0-107.442-46.61-107.442-99.993v-555.272c0-53.393 43.419-96.855 96.719-96.855h701.968c53.34 0 96.69 43.462 96.69 96.855V623.254c0 53.383-43.351 96.856-96.69 96.856z m-416.406-70.37h132.427c19.38 0 35.124 15.744 35.124 35.178 0 19.458-15.744 35.192-35.124 35.192H446.158c-19.415 0-35.12-15.734-35.12-35.192-0.001-19.434 15.704-35.178 35.12-35.178z m-104.305-73.275c19.38 0 35.124 15.723 35.124 35.167V758.249c0 19.444-15.744 35.171-35.124 35.171s-35.12-15.726-35.12-35.171v-146.617c-0.001-19.444 15.74-35.167 35.12-35.167z m339.457 1.433c19.38 0 35.12 15.737 35.12 35.192V759.696c0 19.444-15.748 35.178-35.12 35.178-19.408 0-35.124-15.734-35.124-35.178V613.09c0-19.455 15.705-35.192 35.124-35.192zM373.034 292.064l98.026-98.188a34.988 34.988 0 0 1 24.831-10.311 34.988 34.988 0 0 1 24.831 10.311L746.1 419.638c13.714 13.742 13.714 36.012 0 49.762-13.717 13.742-35.941 13.742-49.665 0L495.892 268.49l-73.193 73.335c-13.721 13.739-35.944 13.739-49.665 0-13.718-13.753-13.718-36.008 0-49.761z"  horiz-adv-x="1024" />

    
    <glyph glyph-name="yuanquan" unicode="&#58884;" d="M512 42.667c188.513 0 341.333 152.82 341.333 341.333s-152.82 341.333-341.333 341.333c-188.513 0-341.333-152.82-341.333-341.333 0-188.513 152.82-341.333 341.333-341.333zM512-128c-282.77 0-512 229.23-512 512s229.23 512 512 512 512-229.23 512-512-229.23-512-512-512z"  horiz-adv-x="1024" />

    
    <glyph glyph-name="sousuo2" unicode="&#58881;" d="M470.4-16c-112 0-224 41.6-310.4 128-169.6 172.8-169.6 451.2 0 624 172.8 172.8 451.2 172.8 620.8 0 172.8-172.8 172.8-451.2 0-620.8-83.2-86.4-198.4-131.2-310.4-131.2zM470.4 787.2c-92.8 0-185.6-35.2-256-105.6-140.8-140.8-140.8-374.4 0-515.2 140.8-140.8 374.4-140.8 515.2 0 140.8 140.8 140.8 374.4 0 515.2-70.4 70.4-166.4 105.6-259.2 105.6zM905.6-80l-160 160c-19.2 19.2-19.2 51.2 0 70.4s51.2 19.2 70.4 0l160-160c19.2-19.2 19.2-51.2 0-70.4-19.2-22.4-51.2-22.4-70.4 0z"  horiz-adv-x="1024" />

    
    <glyph glyph-name="xitongtongzhi" unicode="&#59367;" d="M733.090909 384c0 81.454545-60.509091 148.945455-139.636364 160.581818v-46.545454c53.527273-11.636364 93.090909-58.181818 93.09091-114.036364s-39.563636-102.4-93.09091-114.036364v-46.545454c79.127273 11.636364 139.636364 79.127273 139.636364 160.581818zM477.090909 663.272727l-209.454545-139.636363h-69.818182c-25.6 0-46.545455-20.945455-46.545455-46.545455v-186.181818c0-25.6 20.945455-46.545455 46.545455-46.545455h69.818182l209.454545-139.636363c25.6 0 46.545455 20.945455 46.545455 46.545454V616.727273c0 25.6-20.945455 46.545455-46.545455 46.545454z m-209.454545-349.090909c0-13.963636-9.309091-23.272727-23.272728-23.272727h-23.272727c-13.963636 0-23.272727 9.309091-23.272727 23.272727v139.636364c0 13.963636 9.309091 23.272727 23.272727 23.272727h23.272727c13.963636 0 23.272727-9.309091 23.272728-23.272727v-139.636364z m209.454545-162.909091l-162.909091 102.4V514.327273l162.909091 102.4v-465.454546zM593.454545 709.818182v-48.872727c137.309091-25.6 232.727273-137.309091 232.727273-276.945455s-93.090909-246.690909-232.727273-276.945455V58.181818c158.254545 23.272727 279.272727 158.254545 279.272728 325.818182s-121.018182 302.545455-279.272728 325.818182z"  horiz-adv-x="1024" />

    
    <glyph glyph-name="liebiaoqingdan" unicode="&#58975;" d="M343.5 639.2h515.4c11.9 0 21.5 9.6 21.5 21.5s-9.6 21.5-21.5 21.5H343.5c-11.9 0-21.5-9.6-21.5-21.5s9.6-21.5 21.5-21.5z m515.4-257.7H171.6c-11.9 0-21.5-9.6-21.5-21.5s9.6-21.5 21.5-21.5h687.3c11.9 0 21.5 9.6 21.5 21.5s-9.6 21.5-21.5 21.5z m0-300.7H171.6c-11.9 0-21.5-9.6-21.5-21.5s9.6-21.5 21.5-21.5h687.3c11.9 0 21.5 9.6 21.5 21.5s-9.6 21.5-21.5 21.5z m-715 650.7v-127.4L271 667.8l-127.1 63.7z"  horiz-adv-x="1024" />

    
    <glyph glyph-name="tubiaozhizuomoban" unicode="&#58883;" d="M872.757099-127.97707700000001H151.242901c-67.486507 0-114.617029 41.949833-114.617029 102.009156v0.974245l34.385108 806.903885A114.743108 114.743108 0 0 0 185.62801 896h650.45164a114.743108 114.743108 0 0 0 114.617029-114.066867l36.677449-807.396739v-0.504315c0-60.082247-47.130522-102.009156-114.617029-102.009156zM82.472683-26.437850000000026c0.275081-41.113128 37.158841-55.715338 68.770218-55.715338h721.514198c31.599915 0 68.483675 14.590748 68.770218 55.680952l-36.67745 807.33943V781.382971a68.850449 68.850449 0 0 1-68.770217 68.770217H185.62801a68.850449 68.850449 0 0 1-68.770218-68.770217v-0.974245zM328.463751 672.107095m-37.181764 0a37.181764 37.181764 0 1 1 74.363528 0 37.181764 37.181764 0 1 1-74.363528 0ZM694.092074 672.107095m-37.181764 0a37.181764 37.181764 0 1 1 74.363528 0 37.181764 37.181764 0 1 1-74.363528 0ZM550.992713 487.51637h-79.716143c-43.118926 0-83.819433 17.192554-114.61703 48.265231a162.756181 162.756181 0 0 0-47.554605 115.052574 17.192554 17.192554 0 0 0 34.385109 0c0-71.062558 57.308515-128.921234 127.775064-128.921235h79.716144c70.455088 0 127.775064 57.835753 127.775064 128.921235a17.192554 17.192554 0 1 0 34.385108 0 162.756181 162.756181 0 0 0-47.554605-115.052574c-30.774672-31.072677-71.475179-48.265231-114.594106-48.265231z"  horiz-adv-x="1024" />

    


  </font>
</defs>
</svg>
